<svg width="558" height="160" viewBox="0 0 558 160" fill="none" xmlns="http://www.w3.org/2000/svg">
<path d="M522.239 158C515.406 155.319 504.146 141.555 513.772 107.951C525.804 65.945 513.772 3.68121 513.772 1" stroke="black" stroke-opacity="0.57" stroke-width="3"/>
<path d="M557 158C550.167 155.319 538.906 141.555 548.533 107.951C560.565 65.945 548.533 3.68121 548.533 1" stroke="black" stroke-opacity="0.57" stroke-width="3"/>
<path d="M2 76.9677C57.4093 79.8475 186.678 85.7859 260.478 86.5009C352.727 87.3947 293.456 81.4364 516.727 72.499" stroke="#171717" stroke-width="3" stroke-linecap="round"/>
<path d="M2 88.8843C57.4093 91.7641 186.678 97.7025 260.478 98.4175C352.727 99.3112 293.456 93.353 516.727 84.4156" stroke="#171717" stroke-width="3" stroke-linecap="round"/>
<path d="M537.655 42.7078L528.565 57.5902L545.884 57.8129L537.655 42.7078ZM537.39 104.097L538.767 56.2215L535.767 56.1829L534.39 104.059L537.39 104.097Z" fill="black" fill-opacity="0.57"/>
<path d="M305.06 73.0948L295.06 67.3213V78.8684L305.06 73.0948ZM213.239 74.0948H296.06V72.0948H213.239V74.0948Z" fill="black"/>
</svg>
